<?xml version="1.0" encoding="utf-8"?>
<!-- Generator: Adobe Illustrator 25.4.1, SVG Export Plug-In . SVG Version: 6.00 Build 0)  -->
<svg version="1.1" id="Layer_1" xmlns="http://www.w3.org/2000/svg" xmlns:xlink="http://www.w3.org/1999/xlink" x="0px" y="0px"
	 viewBox="0 0 630.3 725" style="enable-background:new 0 0 630.3 725;" xml:space="preserve">
<style type="text/css">
	.st0{clip-path:url(#SVGID_00000083086464179316302970000001397215454970495390_);}
	.st1{fill:#FDB826;}
</style>
<g>
	<defs>
		<rect id="SVGID_1_" x="0" width="630.2" height="725"/>
	</defs>
	<clipPath id="SVGID_00000180347363576273392530000008446425136689501095_">
		<use xlink:href="#SVGID_1_"  style="overflow:visible;"/>
	</clipPath>
	<g style="clip-path:url(#SVGID_00000180347363576273392530000008446425136689501095_);">
		<path class="st1" d="M38.1,1.4c14.1-2,28.5-1.9,42.6,0.4c18.4,2.7,36.5,9,51.5,20.2c15-8.5,32.1-12.6,49-15.9
			c16.2-2.8,33.1-4.6,49.2-0.4c7.6,2.1,15.5,6.1,19.1,13.5c4.7,9.3,4,21.6-3.3,29.4c-6.2,7.1-15.9,9-23.7,13.6
			c-7.5,4.4-14.7,9.7-19.9,16.7c-7,8.5-11.7,18.5-15.8,28.6c19.7,8.9,37.5,21.7,53.4,36.3c9.1,7.7,16.7,16.8,24.8,25.5
			c27.7-6.2,56-10.4,84.5-9.8c15.7,0.7,31.5,1.9,46.9,5.3c48.6,10.5,92.7,39.3,122.4,79.2c10.8,14.8,23.1,29.1,39.1,38.4
			c7.4,4.1,12.9,11.9,13.1,20.5c0.6,7.9-1.3,17.3-8.4,21.9c-12.9,6.6-23.8,16.5-31.5,28.7c-12.8,19.8-28.7,38.1-48.6,51
			c-0.3,0.1-0.5,0.2-0.7,0.4c-0.2,0.2-0.4,0.4-0.5,0.6c-0.1,0.2-0.2,0.5-0.2,0.7c0,0.3,0,0.5,0.1,0.8c22.4,6.6,42.5,19.9,59.1,36.1
			c15.2,14.3,28.1,31,39.3,48.6c2.9,4.5,5.5,9.3,9.2,13.2c7.9,8.4,17.6,15,27.6,20.5c8.1,4.5,14.1,13.2,13.7,22.6
			c-0.6,5.7-3,11.7-8.3,14.6c-4,2.5-8.8,2.5-13.1,4.4c-6.8,2.9-12.6,7.7-18.1,12.5c-12.2,11.3-22.5,24.5-33.2,37.3
			c-12,14.2-25.7,26.9-40.8,37.7c-21.8,15.4-46.9,25.7-72.8,31.3c-23.8,6.5-48.8,8.2-73.4,7.3c-29.6-1.6-58.8-8-86.9-17.2
			c-11.4-3.4-22.3-8.2-33.7-11.6c-4.7,6.4-11,11.2-16.8,16.5c-19.4,16.1-40.2,31.2-63.8,40.4c-9.1,3.2-20,6.1-28.8,0.6
			c-7-5.6-11.7-13.4-13.4-22.2c-1.5-9,2.6-18.1,9.2-24.1c16.6-15.5,30.9-33.5,41.4-53.7c6.8-13.5,13.1-27.3,16.6-42.1
			c-25.1-4.9-49.8-13.4-71.4-27.4c-7.2,6.4-16.4,9.7-25.4,12.6c-21.3,6.2-43.7,9.4-65.8,7.2C21.1,570.8,9,568,3,558.2
			c-2.6-6-3.5-12.5-2.6-19c1-6.6,6-11.7,11.4-15c11.1-6.4,24.5-8.8,33.9-18c16.4-15.1,23.2-37.6,26.9-59c4.8-30.5,4-61.8-1-92.3
			c-1.8-9.4-3.4-19-8.2-27.4c-1.5-2.1-3.2-5-6.2-4.9c-4.3-0.2-8.4-1.6-11.9-4c-3.5-2.4-6.2-5.8-7.8-9.8c-5.3-12.5-3.5-29.1,7.3-38.2
			c3.7-3.3,9-3.8,12.6-7.3c8-6.4,12.1-16.2,14.2-26c4.8-19.5,7.3-39.6,7.4-59.7c0.5-28.8-1.9-58.3-12.3-85.4
			c-6.2-15.4-16-31.2-32.3-37.4c-8.4-2.4-17.2-6.4-21.7-14.3c-2.2-3.7-3.4-7.9-3.3-12.2c0.1-4.3,1.4-8.5,3.8-12
			C18.7,7.7,28.4,3.2,38.1,1.4z M41.3,32.6c11.2,3.6,21.3,10.2,29.1,19.1c16.8,19,24.7,44,28.9,68.6c5.3,33.6,5,68.1,0.2,101.8
			c-2.6,16.2-6.1,32.6-13.7,47.3c-3.5,6.7-8.1,13.2-14.8,17c-2.9,1.7-6.3,2.2-9.3,3.5c-1.5,2-0.8,4.6-0.6,6.9
			c4.8,1.4,9.7,3,13.3,6.6c8.5,8.1,13.1,19.3,16.6,30.3c5.7,19.3,7.6,39.6,8.2,59.6c0.7,28-0.4,56.6-8.6,83.7
			c-5.7,18.9-15.7,37.3-31.7,49.4c-9.4,7.4-20.7,11.8-32.1,15.2c0,1.5-0.2,3.2,0.7,4.5c1.8,1.2,4.1,1.2,6.2,1.3
			c11.1,0.6,22.3,0.2,33.3-1.2c20.2-2.6,40.4-9.9,55-24.4c4.8,3.5,9.4,7.4,14.5,10.5c25.8,16.5,56.2,24,86.4,26.7
			c-6.2,48.3-28.2,93.1-62.5,127.6c-1.9,1.7-3.6,3.5-5.2,5.4c-1.2,2.1-0.8,5.8,1.9,6.5c3-0.4,5.6-2.1,8.4-3.3
			c29.9-14.3,57.6-34.1,78.6-60c44.4,20.3,92.6,34,141.7,33.7c41.9,0,84.5-11.2,118.8-35.8c17.5-12.5,32.7-27.8,45-45.3
			c11.7-15.1,24.4-30.7,42.2-38.9c2.7-1.2,4.7-4.2,3.8-7.2c-2.3-2.6-5.7-3.8-8.5-5.7c-14.7-9.5-24.7-24.2-34.4-38.5
			c-9.4-14.4-20.2-28.1-33.4-39.3c-33.2-28.8-77.3-42.5-120.7-44.5c18-4.1,35.8-9.9,52-18.7c20.6-11,38.5-26.3,52.5-45
			c11.1-14.8,21.7-30.9,37.7-40.9c1.3-0.9,2.8-1.9,2.5-3.8c0.1-4-4.7-5.1-7.3-7.1c-22.5-13.9-33.6-39.2-51.3-57.9
			c-27.2-29.8-65.2-48.4-104.8-54.6c-41.5-6.8-84.3-1.4-124.1,11.7c-21-30.2-50.7-53.8-83.8-69.4c-5-1.8-7.3,6-3.8,8.8
			c42.3,43.7,62.7,106,60,166.2c-1.7,35.1-11.3,70.9-33.1,99.1c-2.3,3.2-5.5,5.7-7.4,9.1c-1.2,3.4,1.8,6.1,3.5,8.7
			c18.8,26.1,29.3,57.5,32.6,89.4c-20.2-3.8-40.9-11.4-55-27c-13-14.1-17.9-33.5-19.6-52.2c-3.4-36.3-0.2-74.2,15.9-107.4
			c5.6-10.5,12.6-22.7,25.3-25.4c0.2-1.8,0.2-3.6-0.1-5.4c-4.8-1.6-9.9-2.8-13.8-6.3c-6.4-5.5-10.1-13.4-12.9-21.2
			c-3.6-10.3-5.6-21.1-7.1-31.8c-3-23.7-3.7-47.7-3.3-71.7c0.9-21.4,4.1-42.8,11.4-62.9c7.6-21,20.2-40.9,39.1-53.5
			c6-4.2,12.8-7.1,19.5-9.9c3.3-0.7,3-6.7-0.6-6.5c-13.5-0.9-27.1-0.3-40.5,1.9c-19.2,3.1-38.9,9.8-52.3,24.5
			c-6.3-9.2-15.1-16.4-25.3-20.7C85,25.5,63.2,23.1,42.1,25.1C37.9,25.1,37.2,31.7,41.3,32.6L41.3,32.6z M177.3,192.6
			c0.3,14.2,1.6,28.4,3.8,42.5c1.1,7.4,3.1,14.6,5.8,21.5c1.4,3.7,3.3,7.5,6.4,10.1c3.1,1.7,6.7,2.5,9.9,4
			c-2.4-23.6-9.9-46.5-20-67.8C181.4,199.4,180.9,194.8,177.3,192.6L177.3,192.6z M189.6,326.4c-7.7,14.2-10.9,30.3-14.1,46
			c-1.1,5.9-2.4,11.8-2.8,17.7c1.4-1,2.5-2.1,3.5-3.5c13.4-20.1,22.4-42.8,26.4-66.6C198,321.5,192.3,321.9,189.6,326.4L189.6,326.4
			z M175.6,442.3c1.5,8.1,4.3,16.2,9.4,22.7c0.9,1.3,2.3,2.3,3.8,2.7c-1.4-6.9-5.5-12.8-8.4-19.1
			C179.1,446.3,178.5,443.1,175.6,442.3L175.6,442.3z"/>
		<path class="st1" d="M279,243.1c28.2-10.8,59.5-12.1,89.2-8c34.1,4.9,68.6,19.2,90.6,46.7c2,2.8,5.6,6.7,2.9,10.1
			c-5,5.1-12.5,5.9-18.9,8.4c-2,0.5-3.6,3-1.6,4.6c6.3,2.3,14,3.1,18.5,8.7c2.4,3.2,1.1,7.5-1.1,10.5c-15,21.7-39.5,34.8-64.6,41
			c-36,8.7-74,6.1-109.6-3.4c4.1-22.3,6.5-45.1,4.7-67.8C287.8,276.6,284.4,259.6,279,243.1L279,243.1z M309,259.5
			c0.3,3.9,1.1,7.8,1.7,11.6c3.5,23.8,4,47.9,1.5,71.7c30.7,6.3,62.5,3.7,91.8-7.4c7.5-3,15-6.2,21.6-11c-6-5.1-11.2-12-11.3-20.2
			c-0.6-8.7,4.7-16.3,10.8-22c-15.2-11.3-33.2-18.5-51.8-22.1C352,256,330.2,256.2,309,259.5L309,259.5z"/>
		<path class="st1" d="M270.6,409.1c17.9,4,36,7.3,54.3,8.4c-17.7,3.2-35.2,7.6-52.6,12.4c-1.1-4.5-2.6-8.9-3.6-13.4
			C268.1,413.9,269.8,411.5,270.6,409.1z"/>
		<path class="st1" d="M299.6,479.5c26.7-8.9,54.6-13.4,82.7-13.3c25.5,0.2,51.2,4.4,74.7,14.3c20.3,8.4,38.3,21.3,52.8,37.8
			c1.8,2.1,3.6,4.8,2.9,7.7c-1.5,4.3-6,6.4-9.9,8c-5.5,2.4-11.6,2.7-17,5.3c0,0.8,0,2.2,0,3c8,2.9,17.6,3.8,23.2,10.8
			c3,3.8,0.8,8.8-2.2,11.8c-24.2,26.5-59.1,41.2-94.1,46.4c-47.9,7-97.8-3.2-140-26.6c2.7-8,5-16.2,6.8-24.6
			c16.7-0.4,33.3,1.4,49.5,5.2c16.4,4.2,33.5,11.5,43.3,26c3.8,5.2,5.2,11.5,7.8,17.2c2.2-0.5,5-1,5.1-3.8c1.8-13.8,1.7-28.2-2-41.7
			c-2.4-9.1-7.7-17.2-14.9-23.2c3.5-3.9,7.2-7.7,9.8-12.4c5.7-10.1,8-21.7,9.2-33.1c0.7-7.8,1.5-15.6,0.8-23.5
			c-2.6-1.1-5.8-0.4-6.5,2.6c-6.7,15.6-20.6,27.3-36.5,32.8c-19.4,6.9-40.4,7.9-60.8,7.6c0.1-9.2-0.3-18.4-1.3-27.6
			C288,483.4,293.9,481.5,299.6,479.5z M411.2,492.5c-0.6,16.5-4.7,32.7-11.9,47.6c8.3,14,10.4,30.6,11.2,46.6
			c21.8-2.8,42.7-10.8,60.9-23.1c-4.3-3.8-9.2-7.6-10.6-13.5c-3.3-12.1,2.9-24.7,12.3-32.2c-1.8-1.6-3.8-2.9-5.8-4.1
			C450,503.4,431,496.2,411.2,492.5L411.2,492.5z"/>
		<path d="M41.3,32.6c-4.1-0.8-3.5-7.5,0.8-7.4c21-2.1,42.9,0.4,62.4,8.9c10.2,4.3,19,11.5,25.3,20.7c13.5-14.6,33.1-21.4,52.4-24.5
			c13.4-2.2,27-2.8,40.5-1.9c3.6-0.2,3.9,5.8,0.6,6.5c-6.8,2.8-13.5,5.6-19.5,9.9c-18.8,12.6-31.5,32.5-39.1,53.5
			c-7.3,20.2-10.5,41.6-11.4,62.9c-0.4,23.9,0.2,47.9,3.3,71.7c1.5,10.8,3.5,21.5,7.1,31.8c2.8,7.8,6.5,15.7,12.9,21.2
			c3.9,3.5,9,4.7,13.8,6.3c0.3,1.8,0.3,3.6,0.1,5.4c-12.7,2.7-19.7,14.9-25.3,25.4c-16,33.1-19.2,71.1-15.9,107.4
			c1.7,18.6,6.7,38,19.6,52.2c14.1,15.6,34.8,23.1,55,27c-3.3-31.8-13.8-63.3-32.6-89.3c-1.7-2.6-4.7-5.3-3.5-8.7
			c1.9-3.4,5.1-6,7.4-9.1c21.8-28.2,31.3-64,33.1-99.1c2.7-60.3-17.7-122.5-60-166.2c-3.5-2.8-1.2-10.6,3.8-8.8
			c33.1,15.6,62.8,39.2,83.8,69.4c39.8-13.1,82.6-18.5,124.1-11.7c39.6,6.2,77.6,24.8,104.8,54.6c17.7,18.7,28.7,44,51.3,57.9
			c2.6,2,7.4,3.1,7.3,7.1c0.2,1.8-1.2,2.9-2.5,3.8c-16,10-26.6,26-37.7,40.9c-14,18.6-31.8,34-52.4,45c-16.3,8.9-34,14.6-52,18.7
			c43.4,2,87.5,15.7,120.7,44.5c13.2,11.2,24,24.9,33.4,39.3c9.7,14.2,19.7,29,34.4,38.5c2.8,2,6.2,3.1,8.5,5.7c0.8,3-1.1,6-3.9,7.2
			c-17.7,8.2-30.5,23.8-42.1,38.9c-12.3,17.5-27.5,32.9-45,45.3c-34.4,24.5-76.9,35.8-118.8,35.8c-49.1,0.2-97.3-13.4-141.7-33.7
			c-21,26-48.7,45.7-78.6,60.1c-2.7,1.2-5.4,2.9-8.4,3.3c-2.7-0.7-3.1-4.3-1.9-6.5c1.6-1.9,3.3-3.7,5.2-5.4
			c34.3-34.5,56.3-79.3,62.5-127.6c-30.2-2.7-60.6-10.2-86.4-26.7c-5.1-3.1-9.7-7-14.4-10.5c-14.7,14.5-34.9,21.8-55,24.4
			c-11.1,1.4-22.2,1.8-33.4,1.2c-2.1-0.1-4.3-0.1-6.2-1.3c-0.9-1.3-0.7-3-0.7-4.5c11.3-3.5,22.6-7.8,32.1-15.2
			c16-12.1,25.9-30.5,31.7-49.4c8.2-27,9.3-55.6,8.6-83.7c-0.6-20.1-2.5-40.3-8.2-59.7c-3.4-11-8-22.2-16.6-30.3
			c-3.6-3.6-8.6-5.2-13.3-6.6c-0.1-2.3-0.9-4.9,0.6-7c3-1.3,6.4-1.8,9.3-3.4c6.7-3.8,11.3-10.4,14.8-17
			c7.6-14.7,11.1-31.1,13.7-47.3c4.8-33.7,5.1-68.1-0.2-101.8c-4.2-24.6-12.1-49.6-28.9-68.6C62.6,42.8,52.6,36.2,41.3,32.6
			L41.3,32.6z M279,243.1c5.4,16.4,8.8,33.4,10.1,50.6c1.8,22.7-0.6,45.5-4.7,67.8c35.5,9.5,73.6,12.1,109.6,3.4
			c25.1-6.1,49.7-19.3,64.6-41c2.2-2.9,3.6-7.3,1.1-10.5c-4.5-5.7-12.2-6.4-18.5-8.7c-2-1.5-0.4-4,1.6-4.6
			c6.4-2.5,13.9-3.3,18.9-8.4c2.6-3.5-0.9-7.3-2.9-10.1c-22-27.4-56.4-41.8-90.6-46.7C338.4,231.1,307.2,232.3,279,243.1z
			 M270.6,409.1c-0.8,2.4-2.5,4.8-1.9,7.4c1.1,4.5,2.6,8.9,3.6,13.4c17.4-4.8,34.9-9.1,52.6-12.4C306.6,416.4,288.5,413,270.6,409.1
			L270.6,409.1z M299.6,479.5c-5.7,2.1-11.6,3.9-16.9,6.9c1,9.1,1.5,18.4,1.3,27.6c20.4,0.3,41.4-0.7,60.8-7.6
			c15.9-5.5,29.8-17.2,36.5-32.8c0.8-3.1,3.9-3.8,6.5-2.6c0.7,7.8-0.1,15.7-0.8,23.4c-1.3,11.4-3.5,23-9.2,33.1
			c-2.6,4.6-6.3,8.4-9.8,12.4c7.3,6,12.5,14.1,14.9,23.2c3.7,13.5,3.8,27.9,2,41.7c-0.1,2.8-2.9,3.3-5.1,3.8
			c-2.6-5.7-4-12.1-7.8-17.2c-9.9-14.5-26.9-21.8-43.3-26c-16.2-3.9-32.8-5.6-49.5-5.2c-1.8,8.3-4.1,16.5-6.8,24.6
			c42.2,23.4,92.1,33.6,140,26.6c35.1-5.2,69.9-19.9,94.1-46.4c3-3,5.3-8,2.2-11.8c-5.6-7-15.3-7.9-23.2-10.8c0-0.8,0-2.2,0-3
			c5.4-2.6,11.6-2.9,17-5.3c3.9-1.6,8.4-3.7,9.9-8c0.7-2.9-1.1-5.6-2.9-7.7c-14.5-16.4-32.5-29.3-52.7-37.7
			c-23.5-9.9-49.2-14.1-74.7-14.3C354.2,466.1,326.2,470.6,299.6,479.5L299.6,479.5z"/>
	</g>
</g>
</svg>
