<svg id="GITES_DE_FRANCE" data-name="GITES DE FRANCE" xmlns="http://www.w3.org/2000/svg" viewBox="0 0 311.81 311.81"><defs><style>.cls-1{fill:#fff;}.cls-2{fill:#00663f;}.cls-3{fill:#ffdf30;}.cls-4{fill:#e30613;}</style></defs><title>Logo 4 couleurs</title><circle class="cls-1" cx="155.91" cy="155.91" r="141.73"/><path class="cls-2" d="M49.48,213.89a5.43,5.43,0,0,1-8-2A128.2,128.2,0,0,1,268.59,93.2a5.42,5.42,0,0,1-2.57,7.64c-3.59,1.56-8.35,3.45-11.95,4.86a6.5,6.5,0,0,1-7.95-2.74A103.87,103.87,0,0,0,62.46,199.34a5.38,5.38,0,0,1-1.8,6.62Z"/><path class="cls-2" d="M80.72,221.38c-4.87-5.82-13.5-6.35-19.63-1.22l-.06.05a14.67,14.67,0,0,0-5.35,9.34,13.12,13.12,0,0,0,3.21,10.21,16.15,16.15,0,0,0,10.26,5.6l.22,0,9.13-7.64-7.55-9L67,232l4.15,5L68,239.66a9.61,9.61,0,0,1-5-3.16,7.58,7.58,0,0,1-1.82-6.13,9.76,9.76,0,0,1,3.59-5.92A9.47,9.47,0,0,1,71,222.14a7.18,7.18,0,0,1,5.51,2.53,9.23,9.23,0,0,1,2.27,6.9v.52l5.51-.13,0-.47A13.79,13.79,0,0,0,80.72,221.38Z"/><path class="cls-2" d="M91.06,232.47l4.54,3.7L78.5,257.22,74,253.52Z"/><path class="cls-2" d="M101,245.93l-5.65-3.3,2.51-4.3,16.33,9.53-2.52,4.31-5.64-3.3L94.84,268l-5-2.93Z"/><path class="cls-2" d="M116.76,248.81l14.13,5-1.66,4.7-8.6-3-2,5.6,7.5,2.64-1.59,4.49-7.49-2.65-2.16,6.1,8.68,3.06-1.66,4.7-14.2-5Z"/><path class="cls-2" d="M131.54,275.69l.4.33a12,12,0,0,0,1.88,1.18,8.6,8.6,0,0,0,2.59.76,4.74,4.74,0,0,0,3.08-.36,2.82,2.82,0,0,0,1.44-2.16,3.5,3.5,0,0,0-.48-2.45,8.8,8.8,0,0,0-2.79-2.46,14.9,14.9,0,0,1-4.75-4.19,6.86,6.86,0,0,1-1-5,7.39,7.39,0,0,1,1.07-2.89,6.89,6.89,0,0,1,2.12-2.11,8.3,8.3,0,0,1,3.05-1.14,11.89,11.89,0,0,1,3.81,0,16,16,0,0,1,4,1.17,12.41,12.41,0,0,1,2.84,1.68l-3.18,3.78a6,6,0,0,0-.68-.46,9.9,9.9,0,0,0-1-.5,10.56,10.56,0,0,0-1.11-.42,6,6,0,0,0-1.05-.27,5.68,5.68,0,0,0-2.9.2,2.14,2.14,0,0,0-1.42,1.78,2.21,2.21,0,0,0,.15,1.29,3.87,3.87,0,0,0,.8,1.15,10,10,0,0,0,1.3,1.13l1.65,1.24a24.89,24.89,0,0,1,2.72,2.3,11,11,0,0,1,1.79,2.24,7.16,7.16,0,0,1,.86,2.33,7.85,7.85,0,0,1,0,2.56,8.09,8.09,0,0,1-1.23,3.31,7.44,7.44,0,0,1-2.3,2.24A8.11,8.11,0,0,1,140.1,283a11.65,11.65,0,0,1-3.63,0,17.59,17.59,0,0,1-4.7-1.34,16.85,16.85,0,0,1-3.06-1.73Z"/><path class="cls-2" d="M166.23,257.61a13.79,13.79,0,0,1,1.7-.77c.7-.28,1.46-.55,2.26-.81s1.59-.5,2.36-.71,1.43-.38,2-.49a14,14,0,0,1,5.95,0,11.87,11.87,0,0,1,4.66,2.23,13.08,13.08,0,0,1,3.29,3.95,17.75,17.75,0,0,1,1.83,5.17,17.53,17.53,0,0,1,.23,5.13,13.78,13.78,0,0,1-1.45,4.93,11.83,11.83,0,0,1-3.36,4,12.93,12.93,0,0,1-5.59,2.37c-.55.1-1.21.21-2,.31s-1.59.18-2.43.24-1.66.1-2.44.11a13.39,13.39,0,0,1-2-.1Zm9.92,20.27a6.38,6.38,0,0,0,1.53,0,14.12,14.12,0,0,0,1.83-.26,5.71,5.71,0,0,0,2.74-1.28A6.84,6.84,0,0,0,184,274a9.11,9.11,0,0,0,.77-3.11,13.08,13.08,0,0,0-.21-3.51,14.27,14.27,0,0,0-1.11-3.4,8.58,8.58,0,0,0-1.89-2.64A6.77,6.77,0,0,0,179,259.8a6.53,6.53,0,0,0-3.25-.12,10.74,10.74,0,0,0-1.75.49,6,6,0,0,0-1.15.58Z"/><path class="cls-2" d="M190.66,251.44l13.75-6,2,4.57L198,253.68l2.36,5.44,7.3-3.17,1.89,4.36-7.29,3.17,2.57,5.93,8.44-3.67,2,4.58-13.82,6Z"/><path class="cls-2" d="M222.22,233.42,233,223l3.44,3.56-6.56,6.34,4.34,4.49,5.71-5.53,3.31,3.41-5.71,5.53,7.77,8-4.2,4.07Z"/><path class="cls-2" d="M253.27,225.13l8,5.42-3.3,4.84-22-15a18.25,18.25,0,0,1,1.23-3.26,27.83,27.83,0,0,1,2.14-3.7,10.13,10.13,0,0,1,6.32-4.32,9.33,9.33,0,0,1,3.61,0,8.9,8.9,0,0,1,6.25,4.65,8.79,8.79,0,0,1,.95,4.19l12.27,1.6-3.56,5.21L254.78,223l-.05.06Zm-4.12-2.81,1.34-1.9a3.58,3.58,0,0,0,.59-1.44,3.75,3.75,0,0,0-.06-1.49,4.45,4.45,0,0,0-.62-1.39,4.25,4.25,0,0,0-2.46-1.7,3.7,3.7,0,0,0-4,1.57c-.16.23-.34.55-.57,1a4.63,4.63,0,0,0-.45,1.14Z"/><path class="cls-2" d="M278.52,198.92l2.14-5.11-29.9-1.08L249,196.94l21.79,20.5,2.08-5-5-4.65,3.85-9.22ZM263.66,204l-6.51-6.05,8.88.35Z"/><polygon class="cls-2" points="285.63 167.36 258.22 162.63 257.34 167.7 274.13 170.6 255.41 178.89 254.62 183.47 282.03 188.2 282.91 183.12 265.6 180.13 284.9 171.58 285.63 167.36"/><path class="cls-2" d="M282.64,138.16a11.61,11.61,0,0,1,1.92,3.54,14.51,14.51,0,0,1,.8,4,15.16,15.16,0,0,1-.8,5.81,14.56,14.56,0,0,1-7.15,8.22,13.47,13.47,0,0,1-5.49,1.44,13.07,13.07,0,0,1-5.59-.87,14.18,14.18,0,0,1-4.62-2.9,14.74,14.74,0,0,1-3.25-4.46,14.53,14.53,0,0,1-1.39-5.58,15.51,15.51,0,0,1,.35-4.25,11.09,11.09,0,0,1,1.56-3.73l4.19,2.29a8.88,8.88,0,0,0-1,2.72,11.16,11.16,0,0,0-.18,2.52,8.63,8.63,0,0,0,.89,3.44,9.1,9.1,0,0,0,2.06,2.73,9,9,0,0,0,3,1.77,9.83,9.83,0,0,0,7.28-.38,9.2,9.2,0,0,0,2.82-2.07,9,9,0,0,0,1.79-2.93,8.59,8.59,0,0,0,.52-3.52,11.79,11.79,0,0,0-.45-2.45,7.84,7.84,0,0,0-1.26-2.56Z"/><path class="cls-2" d="M256.3,136.3l-4-14.46,4.81-1.31,2.41,8.8,5.72-1.56-2.1-7.67,4.59-1.25,2.1,7.66,6.23-1.7-2.42-8.88,4.8-1.31,4,14.53Z"/><polygon class="cls-2" points="99.44 227.06 92.13 225.98 91.86 229.67 96.88 230.29 98.73 235.17 102.28 234.11 99.44 227.06"/><path class="cls-3" d="M214.12,128.54l-9.25-2.29c-.72-.15-7.4-2-12.78-3.66a17.82,17.82,0,0,1-7.27-4.37L162.45,96.79a5.34,5.34,0,0,0-3.4-1.15l-10.27,2.21a2.91,2.91,0,0,0-2.37,2.15l-.5,8a5.93,5.93,0,0,1-2.07,3.08l-11.48,12.42a3.76,3.76,0,0,1-3.36.25l-10.66-5.08a1.16,1.16,0,0,0-.8-.07l-4.6,1.31a1.36,1.36,0,0,0-.84,1.72l2.82,9.28L82.5,129.49a1.65,1.65,0,0,0-1.41,2.15l5.65,9.09-2.48,3.66a4.46,4.46,0,0,0,2.29,2.74l17.68,6.5a5.35,5.35,0,0,1,2.53,2.65l5.24,21,6.13,12-5.44-1.3-7,28.62a2.89,2.89,0,0,0,1.08,3L156,234a2.33,2.33,0,0,0,2.71-1.22l10.21-10.18a5,5,0,0,1,3.51-.39l25.14,3.33a2.81,2.81,0,0,0,1,0l9.57-.95a3.54,3.54,0,0,0,2.32-4.75l-9.95-44.37-7.71,2.64,16.72-21.12a8.12,8.12,0,0,0,1.76-3.44L215.6,131A2,2,0,0,0,214.12,128.54Z"/><path class="cls-4" d="M237.36,106.34,160.42,73.47a12.67,12.67,0,0,0-10,0L126.82,83.72V81.58a3.51,3.51,0,0,0-3.51-3.51h-10.1a3.52,3.52,0,0,0-3.52,3.51v9.55l-35.1,15.21A5.08,5.08,0,0,0,72,112.91l1.85,4a4.84,4.84,0,0,0,6.4,2.7L156.1,86.89,232,119.63a4.85,4.85,0,0,0,6.4-2.7l1.59-4A5.08,5.08,0,0,0,237.36,106.34Z"/><path class="cls-2" d="M151.32,131.16c-4.28-4.73-8.1-16.3-3.59-20.38s15.63.88,19.91,5.6a11,11,0,1,1-16.32,14.78Z"/><path class="cls-2" d="M200.39,98.89c-2.3-.64-2.87,10.7-14.95,26.57-2.51,3.3-12.65,14.11-21,14.51-15.88.77-21.94-7.1-30.76-18.49-1.18-1.53-5.27-7.82-9.68-11.26-2.18-1.7-3.35-1-4.09,0a3.87,3.87,0,0,0-.31,2.08,12.41,12.41,0,0,0,1.11,4.46c1.4,3.19,5,10.3,8.12,15.71,3.77,6.53,13.49,17.19,13.07,29.16-.43,11.81-5.54,24-23.58,62.18,0,0-2.76,6.29-.27,6.37,7,.23,28.9-41.65,32.57-43,3.07-1.13,3.84,3,5.42,17S160.69,243,160.69,243s.9,10.55,3.56,10.19,5.87-10.94,7-39.35c.81-20,0-30.63,0-36.46,0-4.66.71-12.12,2.67-16.33a26.26,26.26,0,0,1,3.75-5.72c15.75-19.06,22.53-38.63,24.14-44.2C203.68,104.71,204.25,100,200.39,98.89Z"/></svg>