<svg width="360" height="360" viewBox="0 0 360 360" fill="none" xmlns="http://www.w3.org/2000/svg">
<path d="M332.308 0C317.014 0 304.615 12.3983 304.615 27.6923C304.615 42.9864 317.014 55.3846 332.308 55.3846C347.602 55.3846 360 42.9864 360 27.6923C360 12.3983 347.602 0 332.308 0Z" fill="#7C3AED"/>
<path d="M27.6923 360C42.9863 360 55.3846 347.602 55.3846 332.308C55.3846 317.014 42.9863 304.615 27.6923 304.615C12.3983 304.615 0 317.014 0 332.308C0 347.602 12.3983 360 27.6923 360Z" fill="#7C3AED"/>
<path d="M249.231 5.83234e-06C264.525 7.16939e-06 276.923 12.3983 276.923 27.6923C276.923 42.9864 264.525 55.3846 249.231 55.3846L161.403 55.3846C136.731 55.3846 124.376 85.2132 141.821 102.658L257.342 218.179C309.677 270.514 272.611 360 198.597 360H110.769C95.4752 360 83.077 347.602 83.077 332.308C83.077 317.014 95.4752 304.615 110.769 304.615H198.597C223.269 304.615 235.624 274.787 218.179 257.342L102.658 141.821C50.3228 89.4856 87.389 0 161.403 0L249.231 5.83234e-06Z" fill="#7C3AED"/>
<path d="M0 249.231C0 264.525 12.3983 276.923 27.6923 276.923C42.9863 276.923 55.3846 264.525 55.3846 249.231V161.403C55.3846 136.731 85.2132 124.376 102.658 141.821L218.179 257.342C270.514 309.677 360 272.611 360 198.597V110.769C360 95.4753 347.602 83.077 332.308 83.077C317.014 83.077 304.615 95.4753 304.615 110.769V198.597C304.615 223.269 274.787 235.624 257.342 218.179L141.821 102.658C89.4856 50.3228 0 87.389 0 161.403V249.231Z" fill="#171717"/>
</svg>
