<svg width="123" height="144" viewBox="0 0 123 144" fill="none" xmlns="http://www.w3.org/2000/svg">
<path d="M105.727 25.9396C89.9632 -1.26756 61.5256 0.0094037 61.5256 0.0094037C61.5256 0.0094037 33.0361 -1.26756 17.298 25.9396C1.48206 53.1988 -4.54308 88.0417 3.66357 107.926C11.0392 125.803 26.3877 136.827 43.7359 141.596C55.3447 144.801 67.6806 144.801 79.2634 141.596C96.6116 136.827 111.96 125.803 119.336 107.926C127.542 88.0417 121.517 53.1988 105.727 25.9396ZM61.4996 94.9477C43.2944 94.9477 28.5692 80.1453 28.5692 61.877C28.5692 43.6086 43.3204 28.8062 61.4996 28.8062C79.6789 28.8062 94.4561 43.6086 94.4561 61.877C94.4561 80.1453 79.7049 94.9477 61.4996 94.9477Z" fill="black"/>
<path d="M84.6649 61.8761C84.6649 74.7239 74.3027 85.122 61.4993 85.122C48.6959 85.122 38.3337 74.7239 38.3337 61.8761C38.3337 49.0283 48.6959 38.6301 61.4993 38.6301C74.3027 38.6301 84.6649 49.0283 84.6649 61.8761Z" fill="black"/>
</svg>
